# xmcd
#
# Track frame offsets: 
#        150
#        14039
#        34942
#        52775
#        73384
#        92860
#        117491
#        134119
#        152102
#        181455
#
# Disc length: 2903 seconds
#
# Revision: 0
# Processed by: cddbd v1.5.2PL0 Copyright (c) Steve Scherf et al.
# Submitted via: ExactAudioCopy v0.95a3
#
DISCID=970b550a
DTITLE=Blueside - Blueside
DYEAR=2010
DGENRE=Blues
TTITLE0=Brown Paper Bag
TTITLE1=Cold-Hearted Woman
TTITLE2=Circles
TTITLE3=Upside Down
TTITLE4=Journey
TTITLE5=Sinister Mister
TTITLE6=Ftb
TTITLE7=Lucky Day
TTITLE8=Bourbon's Ground
TTITLE9=Traveling Mind Blues
EXTD=
EXTT0=
EXTT1=
EXTT2=
EXTT3=
EXTT4=
EXTT5=
EXTT6=
EXTT7=
EXTT8=
EXTT9=
PLAYORDER=
